<svg width="139" height="33" viewBox="0 0 139 33" fill="none" xmlns="http://www.w3.org/2000/svg">
<path d="M0.86 25H5.99V16.48H12.41V12.49H5.99V8.05H14.57V3.94H0.86V25ZM15.9463 16.6C15.9463 21.88 19.2163 25.24 23.3263 25.24C25.7863 25.24 27.5563 24.13 28.4863 22.6V25H33.6163V2.8H28.4863V10.57C27.4663 9.04 25.5463 8.02 23.3263 8.02C19.2163 8.02 15.9463 11.32 15.9463 16.6ZM28.4863 16.63C28.4863 19.3 26.7763 20.77 24.8263 20.77C22.9063 20.77 21.1663 19.27 21.1663 16.6C21.1663 13.93 22.9063 12.49 24.8263 12.49C26.7763 12.49 28.4863 13.96 28.4863 16.63ZM44.4076 12.13C46.1176 12.13 47.5576 13.18 47.5576 15.01H41.1376C41.4376 13.15 42.7276 12.13 44.4076 12.13ZM52.4176 19.45H46.9576C46.5376 20.35 45.7276 21.07 44.2876 21.07C42.6376 21.07 41.2876 20.05 41.1076 17.86H52.7176C52.7776 17.35 52.8076 16.84 52.8076 16.36C52.8076 11.26 49.3576 8.02 44.4676 8.02C39.4876 8.02 36.0076 11.32 36.0076 16.63C36.0076 21.94 39.5476 25.24 44.4676 25.24C48.6376 25.24 51.6076 22.72 52.4176 19.45ZM55.2139 25H60.3439V2.8H55.2139V25ZM63.7616 25H68.8916V8.26H63.7616V25ZM66.3416 6.52C68.1416 6.52 69.3716 5.29 69.3716 3.76C69.3716 2.2 68.1416 0.969998 66.3416 0.969998C64.5116 0.969998 63.2816 2.2 63.2816 3.76C63.2816 5.29 64.5116 6.52 66.3416 6.52ZM70.7192 8.26L76.6592 25H82.9892L88.9292 8.26H83.4692L79.8392 20.2L76.2092 8.26H70.7192ZM98.1685 12.13C99.8785 12.13 101.319 13.18 101.319 15.01H94.8985C95.1985 13.15 96.4885 12.13 98.1685 12.13ZM106.179 19.45H100.719C100.299 20.35 99.4885 21.07 98.0485 21.07C96.3985 21.07 95.0485 20.05 94.8685 17.86H106.479C106.539 17.35 106.569 16.84 106.569 16.36C106.569 11.26 103.119 8.02 98.2285 8.02C93.2485 8.02 89.7685 11.32 89.7685 16.63C89.7685 21.94 93.3085 25.24 98.2285 25.24C102.399 25.24 105.369 22.72 106.179 19.45ZM114.105 17.23C114.105 14.35 115.515 13.51 117.945 13.51H119.355V8.08C117.105 8.08 115.275 9.28 114.105 11.05V8.26H108.975V25H114.105V17.23ZM129.217 18.73L125.347 8.26H119.617L126.427 24.43L122.587 32.95H128.107L138.607 8.26H133.057L129.217 18.73Z" fill="#F94A3D"/>
</svg>
